<?xml version="1.0" standalone="no"?><!DOCTYPE svg PUBLIC "-//W3C//DTD SVG 1.1//EN" "http://www.w3.org/Graphics/SVG/1.1/DTD/svg11.dtd"><svg t="1510550011538" class="icon" style="" viewBox="0 0 1024 1024" version="1.1" xmlns="http://www.w3.org/2000/svg" p-id="1551" xmlns:xlink="http://www.w3.org/1999/xlink" width="16" height="16"><defs><style type="text/css"></style></defs><path d="M515.024893 875.927593l-19.040658-13.709233c-4.52506-3.258207-112.057145-80.993662-219.033575-184.855148-63.497173-61.648059-113.450888-119.68794-148.47559-172.506912C82.083483 434.893878 61.146639 372.449687 66.24782 319.259254c2.866281-29.887704 13.798261-56.929594 32.490995-80.375585 18.922978-23.733541 46.045709-43.866067 80.616062-59.83783 47.842635-22.102391 96.05366-34.441417 143.296637-36.674271 38.248116-1.807159 75.832106 2.970658 111.717408 14.20349 34.143635 10.688433 60.391439 25.329898 77.273944 36.501332 16.883529-11.171434 43.132356-25.813922 77.277014-36.501332 35.887348-11.232832 73.472362-16.013719 111.721501-14.20349 47.244001 2.232854 95.457072 14.57188 143.30073 36.673248 34.724873 16.043395 61.980633 36.278251 81.016175 60.142775 18.777669 23.541159 29.795607 50.702776 32.748868 80.727603 5.225001 53.147454-15.291265 115.52513-60.97984 185.398524-34.506908 52.773947-83.780125 110.74322-146.452513 172.297135-105.58064 103.697757-211.80494 181.26539-216.275765 184.516434L515.024893 875.927593zM338.235444 206.739575c-42.687218 0-86.738503 10.404977-131.686205 31.168883-47.422056 21.910009-72.202439 50.541093-75.755358 87.527472-3.643993 37.950334 13.694907 86.164429 51.534723 143.304823 32.373315 48.88436 79.229482 103.252619 139.26788 161.593352 77.695546 75.499531 157.657716 138.15657 193.229886 165.087942 35.20378-26.935466 114.012683-89.36226 190.532451-164.586522 59.220776-58.216913 105.408725-112.482841 137.281643-161.2925 37.271882-57.077973 54.273091-105.291045 50.53086-143.29766-3.680832-37.381375-28.680203-66.276473-76.426647-88.337931-171.557284-79.249949-282.208407 18.530029-283.306414 19.526729l-22.043039 20.019962-21.490453-19.961634c-1.604544-1.393743-29.945009-25.563212-77.763085-39.912012C388.04999 210.350822 363.378078 206.739575 338.235444 206.739575z" p-id="1552" fill="#666666"></path></svg>