<?xml version="1.0" standalone="no"?><!DOCTYPE svg PUBLIC "-//W3C//DTD SVG 1.1//EN" "http://www.w3.org/Graphics/SVG/1.1/DTD/svg11.dtd"><svg t="1510398028563" class="icon" style="" viewBox="0 0 1024 1024" version="1.1" xmlns="http://www.w3.org/2000/svg" p-id="1572" xmlns:xlink="http://www.w3.org/1999/xlink" width="16" height="16"><defs><style type="text/css"></style></defs><path d="M527.3088 607.744c-48.8448-0.05632-88.42752-39.63392-88.47872-88.48384 0-48.77824 39.7056-88.48384 88.47872-88.48384 48.77824 0 88.48896 39.7056 88.48896 88.48384-0.0512 48.84992-39.63904 88.42752-88.48896 88.48384z m0-117.99552a29.55776 29.55776 0 0 0-29.50656 29.4912 29.54752 29.54752 0 0 0 29.50656 29.51168 29.53216 29.53216 0 0 0 29.4912-29.51168 29.52704 29.52704 0 0 0-29.4912-29.4912z" p-id="1573" fill="#ffffff"></path><path d="M527.3088 696.22784c-130.11456 0-235.96032-79.39072-235.96032-176.96768 0-97.58208 105.84576-176.96256 235.96032-176.96256 130.0992 0 235.96544 79.38048 235.96544 176.96256 0 97.58208-105.84576 176.96768-235.96544 176.96768z m0-294.95808c-95.92832 0-176.96256 54.016-176.96256 117.97504 0 63.9744 81.03424 117.9904 176.96256 117.9904 95.92832 0 176.96768-54.016 176.96768-117.9904 0.00512-63.95904-81.03424-117.97504-176.96768-117.97504zM558.0288 261.12a30.72 30.72 0 0 1-61.44 0v-46.08a30.72 30.72 0 1 1 61.44 0v46.08zM725.87264 316.0576a30.70976 30.70976 0 0 1-41.96352 11.24352 30.70464 30.70464 0 0 1-11.2384-41.9584l23.04-39.9104a30.72 30.72 0 0 1 41.9584-11.24352 30.70976 30.70976 0 0 1 11.24352 41.96352l-23.04 39.90528zM327.46496 316.0576a30.70976 30.70976 0 0 0 41.96352 11.24352 30.70464 30.70464 0 0 0 11.2384-41.9584l-23.04-39.9104a30.72 30.72 0 0 0-41.9584-11.24352 30.70976 30.70976 0 0 0-11.24352 41.96352l23.04 39.90528z" p-id="1574" fill="#ffffff"></path></svg>